# xmcd CD database file
#
# Track frame offsets:
#	150
#	31102
#	51201
#	74822
#	99090
#	123651
#	147145
#	180034
#	198820
#	222634
#	254674
#	283040
#	307957
#	337152
#
# Disc length: 4767 seconds
#
# Revision: 1
# Processed by: cddbd v1.5.2PL0 Copyright (c) Steve Scherf et al.
# Submitted via: CDex 1.51
#
DISCID=d4129d0e
DTITLE=Art Farmer - Benny Golson Jazztet - Here And Now - Another Git Together
DYEAR=1962
DGENRE=Jazz
TTITLE0=Tonk
TTITLE1=Rue Prevail
TTITLE2=Richie's Dilemma
TTITLE3=Whisper Not
TTITLE4=Just In Time
TTITLE5=Ruby, My Dear
TTITLE6=In Love In Vain
TTITLE7=Sonny's Back
TTITLE8=Space Station
TTITLE9=Domino
TTITLE10=Another Git Together
TTITLE11=Along Came Betty
TTITLE12=This Nearly Was Mine
TTITLE13=Reggie
EXTD=YEAR: 1962
EXTT0=
EXTT1=
EXTT2=
EXTT3=
EXTT4=
EXTT5=
EXTT6=
EXTT7=
EXTT8=
EXTT9=
EXTT10=
EXTT11=
EXTT12=
EXTT13=
PLAYORDER=
